<svg xmlns="http://www.w3.org/2000/svg" viewBox="0 0 555.9 525.93"><defs><style>.cls-1{fill:#3493c9;}</style></defs><title>Recurso 3</title><g id="Capa_2" data-name="Capa 2"><g id="Capa_1-2" data-name="Capa 1"><g id="Capa_2-2" data-name="Capa 2"><g id="Capa_3" data-name="Capa 3"><path class="cls-1" d="M62.65,47.67A1069.57,1069.57,0,0,1,117.39,227,1065.16,1065.16,0,0,1,139.9,412.46a1061.94,1061.94,0,0,1-1.82,106.29c-.51,7.71,11.49,7.68,12,0A1070.89,1070.89,0,0,0,146,330.37,1084.57,1084.57,0,0,0,109.09,144.9q-14.93-51-34.9-100.42c-2.85-7.07-14.47-4-11.57,3.19Z"/><path class="cls-1" d="M63.35,52.86A1056.34,1056.34,0,0,1,240.74,171,1073.24,1073.24,0,0,1,390.45,321.36a1043.62,1043.62,0,0,1,70.41,97.42c4.15,6.49,14.54.48,10.36-6A1072,1072,0,0,0,337.55,243.88,1079.79,1079.79,0,0,0,172.9,105,1057.63,1057.63,0,0,0,69.41,42.49C62.59,38.88,56.52,49.24,63.35,52.86Z"/><path class="cls-1" d="M62.38,40.79C46.65,50,32.3,62.55,23.48,78.73c-9.5,17.42-11.71,38.64-4,57.14,6.5,15.59,20.07,26.64,36.3,30.92,20.09,5.3,41.67.92,61.41-3.82,88-21.1,170.07-60.93,258-81.93C425,69.14,477.19,63.45,528,72.56c7.55,1.35,10.79-10.21,3.19-11.57-85.87-15.4-171.82,8.58-252.37,36.87-40.76,14.32-81.14,29.81-122.56,42.2-19.85,5.94-40.1,11.72-60.55,15.22-17.17,2.94-36.68,3.64-51.62-6.89C27.25,136.52,23.54,113.57,29.48,94.9c6.13-19.25,22-33.79,39-43.74,6.66-3.91.63-14.28-6.06-10.37Z"/><path class="cls-1" d="M61.53,41.26C30.7,66.24-4.09,102.11.39,145.38a70.65,70.65,0,0,0,27.79,49.73C38.59,203,51.4,208.73,63.37,213.67c20.5,8.45,43.58,7.85,65,3.57,25.28-5,50.34-13.25,74.87-21.05s48.76-16.17,73-24.63c12-4.18,24.48-7.18,36.57-11.18,11.74-3.89,23.21-8.37,35-12.18,53.74-17.4,113.35-40.24,170-22.26,7.38,2.35,10.54-9.23,3.19-11.57-47.48-15.08-99-2.82-144.95,12.06-11.7,3.79-23.39,7.62-35.09,11.4s-23,8.26-34.61,12.07-23.54,6.71-35.08,10.72Q253.65,166.76,236,172.8c-23.23,7.89-46.57,15.48-70.17,22.21s-47.28,14.16-72.12,13c-17.8-.8-33-8-48.34-16.53-2.37-1.32-4.73-2.66-7.05-4.07l-2.11-1.33c-.16-.09-.31-.22-.47-.31,2.78,1.7-1.18-.86-1.46-1.08A57.55,57.55,0,0,1,16.71,162C-2.28,117.08,38.18,75.54,70,49.75c6-4.87-2.54-13.31-8.49-8.49Z"/><path class="cls-1" d="M115.37,154a86.25,86.25,0,0,0,25.51-58.46c.27-7.72-11.73-7.71-12,0a73.82,73.82,0,0,1-22,50c-5.5,5.43,3,13.92,8.48,8.48Z"/><path class="cls-1" d="M177.88,202.89a252.8,252.8,0,0,1-42.08,81.58c-2,2.59-.37,6.7,2.15,8.21,3.08,1.85,6.24.4,8.21-2.15a261.63,261.63,0,0,0,43.29-84.45c2.23-7.41-9.35-10.58-11.57-3.19Z"/><path class="cls-1" d="M247,174.08a718.1,718.1,0,0,1-76.3,175.73Q156.45,373.5,140.36,396c-4.48,6.3,5.92,12.3,10.37,6.05a733.86,733.86,0,0,0,90.93-172.49q9.48-25.83,16.94-52.31c2.11-7.44-9.47-10.62-11.57-3.19Z"/><path class="cls-1" d="M314.08,243.69a519.85,519.85,0,0,1-85.53,200.18c-4.46,6.32,5.94,12.32,10.36,6a528.13,528.13,0,0,0,86.74-203c1.46-7.54-10.1-10.77-11.57-3.19Z"/><path class="cls-1" d="M81.63,72.66c12.6,5.08,27.14,11,33.53,23.9,6.58,13.35-2.48,26.14-10.48,36.47l10.24,4.25C118,112.56,109.84,87.64,93.5,69c-3.4-3.92-10.5-.85-10.24,4.2a85.36,85.36,0,0,0,18.65,49.54c1.51,1.9,5.31,2.34,7.27.93a27.35,27.35,0,0,0,6.48-38.12c-.3-.42-.61-.84-.94-1.24l-5.84,10,21.88,7.3c7.34,2.45,10.49-9.14,3.19-11.57l-21.88-7.3c-6.31-2.1-9.16,5.79-5.84,10,4.69,6,3,16.15-3.1,20.51l7.27.94a71.35,71.35,0,0,1-15.14-41L85,77.47a76.26,76.26,0,0,1,17.91,59.81c-.62,5,7.16,8.22,10.24,4.24,10.82-14,21.25-30.15,13.63-48.2-7.43-17.62-25.33-25.52-42-32.23-7.16-2.89-10.27,8.71-3.19,11.57Z"/><path class="cls-1" d="M194.37,207.27l44.27-9.88c6.15-1.37,5.23-9.76,0-11.57-14.11-4.87-26.21,6.06-33.94,16.67-9.24,12.67-16.7,27.15-23.7,41.13a451.43,451.43,0,0,0-33.72,89.85c-1.67,6.44,7.66,10.75,11,4.62l49.93-92.55c3.09-5.72-4.87-12.72-9.42-7.27a215.77,215.77,0,0,0-50.23,133.62l11.79-1.59c-4.41-27.38-6-55.93.76-83.07,6.55-26.34,21.67-49,36.6-71.29l-10.36-6.06-40.64,92.25h10.37l-6.33-9.22c-3-4.38-11.9-3.44-11.19,3l9.21,83.27c.72,6.52,9.61,8.4,11.79,1.6l30.74-96.32,15.37-48.15c2.21-6.92,5-14.2,3.67-21.58-1.11-6-5.55-11.47-11.53-13.19-2.91-.84-6.84-.78-9.5.87-3.52,2.2-3.5,7.37-4.23,11l-5.55,28C178,249,189.6,252.18,191.1,244.6l7-35.41-4.19,4.19c6.57-2.29,4.28,9.65,3.45,12.5-2.1,7.18-4.53,14.27-6.81,21.4L176.7,290.74,149,377.61l11.79,1.59-9.21-83.27-11.18,3,6.33,9.22c2.27,3.3,8.4,4.47,10.37,0l40.63-92.24c3.07-7-6-12.6-10.36-6.06-15.86,23.65-31.61,47.87-38.25,75.94-6.81,28.81-5,58.69-.32,87.67,1.1,6.86,11.65,4.94,11.78-1.6a202.59,202.59,0,0,1,46.71-125.14l-9.42-7.27L147.9,332l11,4.62a436.45,436.45,0,0,1,29.36-80.58q9.3-19.29,20.45-37.61c5.21-8.55,14.42-25.34,26.77-21.08V185.82l-44.27,9.87c-7.54,1.68-4.35,13.26,3.19,11.58Z"/><path class="cls-1" d="M236,180.71a714.81,714.81,0,0,0-69.43,171.57c-1.94,7.48,9.63,10.67,11.57,3.19a702.17,702.17,0,0,1,68.22-168.7c3.8-6.74-6.56-12.79-10.36-6.06Z"/><path class="cls-1" d="M149.11,299.33c7.73,0,7.74-12,0-12S141.38,299.33,149.11,299.33Z"/><path class="cls-1" d="M193.62,263.42c6.95-11,14.22-21.9,20.77-33.16,6-10.25,10.73-21.55,9.77-33.64l-9,5.18,14.62,9.49c4.76,3.1,9.67-2,8.81-6.77l-.17-1-.61,4.62-1.33,1.09-4.63-.61.86.44L230,202.34q-21.69,54.55-43.37,109.13c-2.86,7.18,8.74,10.29,11.57,3.19q21.69-54.57,43.37-109.13c.92-2.32-.59-5.67-2.76-6.78-6.63-3.39-13,1.81-11.75,9l8.81-6.78-14.62-9.49c-3.64-2.37-9.38.69-9,5.18.89,11.31-4.2,21.18-9.92,30.58-6.17,10.15-12.65,20.12-19,30.16-4.13,6.55,6.25,12.58,10.36,6.06Z"/><path class="cls-1" d="M11.05,116.88c-5.54,17.29,3.72,35.25,17.7,45.48C44.89,174.17,66.48,175,85.69,174.83c45.53-.43,90.73-7.78,135.11-17.51,25.49-5.6,50.79-12,76.09-18.42,7.48-1.9,4.31-13.47-3.19-11.57-40.57,10.29-81.2,20.58-122.51,27.48A589,589,0,0,1,108.78,162c-18.89,1.11-39.51,2.76-57.95-2.46-16.72-4.73-34.34-20.38-28.21-39.5,2.36-7.38-9.22-10.53-11.57-3.19Z"/><path class="cls-1" d="M11.61,137.08C14.45,155.3,27.4,170.18,43.14,179c19.2,10.79,41.73,12,63.19,9.59,23.81-2.72,47.41-8.24,70.81-13.29q35.7-7.71,71.08-16.65,40.59-10.26,80.78-22.11c7.39-2.18,4.25-13.76-3.19-11.57Q259.5,144.52,192,159.76c-22.4,5-44.88,9.87-67.47,14-21.2,3.89-44,6.79-64.86-.37-17.87-6.13-33.5-20.27-36.5-39.51-1.19-7.61-12.75-4.37-11.57,3.19Z"/><path class="cls-1" d="M6.12,143.3a95.72,95.72,0,0,0,106.57,62.23c7.59-1.29,4.37-12.86-3.19-11.57-39.28,6.68-78.45-16.4-91.81-53.85C15.12,132.89,3.52,136,6.12,143.3Z"/><path class="cls-1" d="M20.87,171.87C36.31,198.73,67.92,210,97.6,209.39c18.27-.36,36.3-4.47,53.83-9.31a525.42,525.42,0,0,0,50.14-16.6,548.4,548.4,0,0,0,54.58-24.73c6.86-3.56.8-13.92-6-10.36a520.9,520.9,0,0,1-90.28,36.78c-29.83,9-63.21,18-93.89,7.76-14.32-4.81-27.1-13.9-34.7-27.12-3.84-6.69-14.22-.66-10.36,6.06Z"/><path class="cls-1" d="M62.14,191.59c44.46,8.48,88.66-3.62,130.49-18.15C236.94,158,281,141.83,325.15,126l75.11-26.93c7.21-2.58,4.1-14.18-3.19-11.57L266.57,134.3,202,157.45c-20.92,7.48-42,14.75-63.71,19.63-23.91,5.39-48.71,7.58-72.94,3-7.55-1.44-10.78,10.12-3.19,11.57Z"/><path class="cls-1" d="M63.53,180.67c93.84,2.62,183.24-29.75,273.61-50,26.05-5.85,52.34-10.72,78.92-13.45,4-.41,8.14-5,5.18-9l-5.12-7.07c-4.49-6.19-14.91-.21-10.36,6.06l5.12,7.06,5.18-9C323,114.72,235,149.47,142.74,163.45a446.77,446.77,0,0,1-79.21,5.22C55.8,168.45,55.81,180.45,63.53,180.67Z"/><path class="cls-1" d="M90.35,201a725,725,0,0,0,192.3-40.72c17.64-6.35,35-13.43,52.12-21.1,7-3.15.94-13.5-6.06-10.36a713.62,713.62,0,0,1-183.78,54.07c-18.1,2.77-36.31,4.76-54.58,6.11-7.65.56-7.71,12.57,0,12Z"/><path class="cls-1" d="M190.22,181.33q60.42-17.19,120.5-35.45c7.36-2.24,4.22-13.82-3.2-11.57Q247.43,152.57,187,169.76c-7.42,2.11-4.26,13.69,3.19,11.57Z"/><path class="cls-1" d="M135.89,169.23,307.81,115c7.34-2.32,4.2-13.91-3.19-11.58L132.7,157.66c-7.34,2.31-4.21,13.9,3.19,11.57Z"/><path class="cls-1" d="M201.77,158.12A1393.18,1393.18,0,0,1,433.7,107.39c3.24-.42,6-2.46,6-6,0-2.92-2.78-6.42-6-6a1412.26,1412.26,0,0,0-235.12,51.16c-7.36,2.28-4.22,13.86,3.19,11.57Z"/><path class="cls-1" d="M365,291.15a165.67,165.67,0,0,1-27,111.1l9.42-1.21-1.82-2c-5.26-5.68-13.73,2.82-8.49,8.49l1.83,2c2.77,3,7.36,1.86,9.42-1.21A176,176,0,0,0,377,291.15C376.14,283.56,364.13,283.48,365,291.15Z"/><path class="cls-1" d="M252.29,434.6l45.87-22.23,22.49-10.89,5.4-2.62c1.38-.67,4.34-1.43,5.39-2.61,2.18-.32,2.24-1.64.18-4l-.14.19c-1.32-1.11-3.07-1.77-4.45-2.89-5.95-4.81-14.49,3.63-8.49,8.49,4.22,3.41,9,6.87,14.7,6.14a11.86,11.86,0,0,0,9.76-8.26,9.5,9.5,0,0,0-5.4-11.51c-5.47-2.31-11,.87-15.82,3.22l-75.56,36.61c-6.95,3.36-.87,13.71,6.06,10.36Z"/><path class="cls-1" d="M340.2,334.89c7.72,0,7.74-12,0-12S332.47,334.89,340.2,334.89Z"/><path class="cls-1" d="M323,254.28a489.34,489.34,0,0,1-69.93,173.14c-3.38,5.22,3.17,11,8.21,8.21,54.64-30.16,91.54-90.92,87.5-153.95-.42-6.63-9.79-8.31-11.78-1.6-16.61,56-47.66,106.83-88.95,148l9.43,7.28a967.19,967.19,0,0,0,71.16-181.27H317.07c3.58,10.67,12.43,17,21.39,23,10.15,6.85,19.51,13.34,17.18,27.1-1.42,8.34-4.4,16.54-6.74,24.66l-7.38,25.58-15,52.11c-2.17,7.53,8.94,10.33,11.57,3.19l20-54.31c5.53-15,11.85-31.08,10.38-47.44-1.27-14.19-9.27-29-24.11-32.54a20,20,0,0,0-18.75,4.83c-4.83,4.73-6.69,11.41-8,17.83-4.3,21.46-8.35,43-12.53,64.46l11.57,3.19c1.44-9.44-9-17.49-17.56-11.74-5.23,3.54-2,13.76,4.63,11,10.17-4.26,16.18-13.76,13.92-24.86-.73-3.55-5.79-5.78-8.82-3.58-13.94,10.13-21.12,26.14-18.41,43.28.85,5.42,8.46,5.4,11,1.43l39.37-62.42-11-4.62-33,89.72c-2.2,6,6,9.58,10,5.83,28.5-26.17,45.18-64.21,43.35-103-.16-3.61-3.73-7.16-7.59-5.78l-8,2.85,7.38,7.38,3.73-26.78-11,1.43c12.59,23.29,17.89,50.86,13.25,77.09-3.54,20-14.54,41.25-35.66,46.67l4.62,11c17.11-11.32,26.28-31.17,22.62-51.49-.53-2.92-4.58-5.36-7.38-4.19-14.12,5.88-24.35,19.19-23.37,35,.22,3.54,3.71,7.26,7.6,5.79,13.61-5.16,19.78-17.46,25.29-30.06l22.68-51.91c3.07-7-7.27-13.12-10.36-6.05l-20.29,46.44c-4.48,10.24-8.94,25.62-20.51,30l7.59,5.79a23.85,23.85,0,0,1,14.56-23.39l-7.38-4.19c2.66,14.77-4.79,29.79-17.11,37.94-5.57,3.68-2.16,12.71,4.63,11,24.61-6.31,39.23-30,43.8-53.73,5.75-29.85.18-61-14.22-87.66-2.26-4.17-10.24-3.8-11,1.44L330.34,308c-.56,4.07,2.57,9.1,7.38,7.38l8-2.85-7.6-5.79c1.69,35.88-13.5,70.38-39.84,94.56l10,5.84,33-89.72c2.43-6.6-7.47-10.17-11-4.63L291,375.25l11,1.44c-1.79-11.35,3.73-23.07,12.9-29.73l-8.9-3.59a9.34,9.34,0,0,1-5.53,10.1l4.62,11c.05,0-.09-1.7-.07-1.82-1.14,7.47,10.08,10.87,11.57,3.19l11.77-60.55c1.14-5.87,1.86-17,9.39-18.33,7-1.22,13.31,5.58,16,11.24,7.3,15.59-.06,34.47-5.55,49.44q-10.83,29.5-21.7,59l11.57,3.19,15.3-53.06L361,330.2c2.48-8.59,5.6-17.27,6.71-26.17,1.77-14-5-24-15.78-32.08-7.88-5.89-19.93-11-23.3-21-1.83-5.48-9.91-5.92-11.57,0a952.42,952.42,0,0,1-69.95,178.4c-3,5.92,4.43,12.25,9.42,7.27,42.72-42.64,74.84-95.39,92-153.32l-11.79-1.59c3.78,59-30.36,115.33-81.56,143.58l8.21,8.21a498.21,498.21,0,0,0,71.1-176c1.45-7.54-10.11-10.77-11.57-3.19Z"/><path class="cls-1" d="M331.66,268.73a426.9,426.9,0,0,1-22.27,83.2c-5,13.11-11.43,25.51-16.76,38.44-4.41,10.69-3.33,25.62,9.9,29.08,7.48,2,10.67-9.62,3.19-11.57-10.33-2.71,2.9-23.44,5.14-28.43q7.68-17,13.88-34.67a425.66,425.66,0,0,0,18.49-72.86c1.23-7.55-10.33-10.8-11.57-3.19Z"/><path class="cls-1" d="M327.29,141.58C384.23,107,453.14,95,518.79,104.82,526.34,106,529.6,94.39,522,93.25c-68.9-10.32-140.88,1.58-200.75,38-6.59,4-.57,14.38,6.06,10.36Z"/><path class="cls-1" d="M339.65,144c58.2-13.69,116.8-43.72,178-31,7.53,1.57,10.76-10,3.19-11.57-63.87-13.25-123.61,16.74-184.37,31-7.51,1.76-4.33,13.34,3.19,11.57Z"/><path class="cls-1" d="M314.6,151.28a428,428,0,0,1,107.2-35.41c7.58-1.44,4.37-13-3.19-11.57a439.37,439.37,0,0,0-110.06,36.62c-6.95,3.37-.87,13.72,6.05,10.36Z"/><path class="cls-1" d="M265.29,125A495.6,495.6,0,0,1,501.37,89.7c7.68.72,7.63-11.28,0-12A507.76,507.76,0,0,0,313.26,95.56a500.73,500.73,0,0,0-51.16,17.92c-7.05,2.89-4,14.51,3.19,11.57Z"/><path class="cls-1" d="M217,132.65c45.47-10.42,85.57-35,125.07-58.78,39.93-24,81.71-48.57,128.76-54.7,25.38-3.31,52-1.2,75.47,9.45,7,3.17,13.09-7.17,6.06-10.36C508.9-1.45,459.3,4.44,416,21.57,370.82,39.44,331.29,68,288.82,91.13c-23.76,12.9-48.54,23.89-75,30-7.52,1.72-4.34,13.29,3.19,11.57Z"/><path class="cls-1" d="M524.89,113.36c-.28-31.67,11.16-61.89,29.86-87.19,4.6-6.22-5.81-12.21-10.36-6.06-19.88,26.9-31.79,59.63-31.5,93.25C513,121.07,525,121.09,524.89,113.36Z"/><path class="cls-1" d="M102.3,73.9c3.17,9.86-1,19.57-2.92,29.23-1.88,9.26-2.11,18.52,2.46,27,3.66,6.81,14,.75,10.37-6.06-4.38-8.16-1.33-17.7.74-26.1,2.22-9,3.83-18.24.92-27.3-2.35-7.33-13.94-4.2-11.57,3.19Z"/><path class="cls-1" d="M126.09,172.46,230.51,151c33.14-6.82,66.52-13,99.11-22.21a395.85,395.85,0,0,0,53.5-19.08c7.05-3.13.95-13.48-6.05-10.36-30.21,13.41-62.42,21.62-94.62,28.62-33.45,7.27-67,13.91-100.57,20.82l-59,12.14c-7.56,1.56-4.36,13.13,3.19,11.58Z"/><path class="cls-1" d="M286.21,132.77A572.79,572.79,0,0,0,394.59,88.12c5.9-3.18,1.88-13.17-4.63-11l-77,26c-7.44,2.51-4.35,12.77,3.19,11.57L471,90c7.25-1.15,4.52-11.08-1.59-11.78A210.36,210.36,0,0,0,337.6,107.15l7.27.94c-9.61-11.82,3.5-26.53,13.14-32.73C371.83,66.47,387.58,59.84,402.9,54A335.92,335.92,0,0,1,451.2,39.6C465,36.6,481.83,34.46,493,45c9.22,8.73,13.13,23.54,7.66,35.31l11,4.62,6.78-17-11.79-1.59-1,24.93,6-6-57.65-7,1.6,11.79,39.63-8.69c6-1.31,5.46-10,0-11.58a227.59,227.59,0,0,0-97-6.24c-6.09.91-5.32,10.13,0,11.57L443.3,87.32l1.59-11.79H392.63l1.59,11.78,14.43-5.81c5.84-2.35,5.71-12-1.6-11.79-12.7.3-26-.49-38.54,1.63l-38,6.45c-7.6,1.29-4.38,12.86,3.19,11.57l36.11-6.12c12.09-2.06,25-1.24,37.25-1.53L405.46,70,391,75.79c-5.91,2.39-5.67,11.8,1.6,11.79h52.26c6.74,0,8.19-10,1.6-11.78l-45-12.24V75.13A213.11,213.11,0,0,1,492,81.38V69.8l-39.63,8.7c-7.17,1.57-4.6,11,1.59,11.78l57.65,7c3.31.41,5.88-3.08,6-6l1-24.93c.3-7.26-9.45-7.47-11.78-1.6L500.1,81.81c-2.49,6.27,8.1,10.78,11,4.63a43.58,43.58,0,0,0-3.69-42.87c-10.48-15.24-27.87-19.87-45.62-17.84-20.22,2.32-40.42,8.73-59.44,15.78-9.67,3.59-19.21,7.59-28.54,12-8.56,4-17.35,8.16-25,13.73S334.2,80.08,331.37,89.5a28.87,28.87,0,0,0,5,27.1c1.64,2,5.17,2.21,7.27.94a199.65,199.65,0,0,1,125.8-27.27l-1.6-11.79L313,103.16l3.19,11.57,77-26-4.62-11A556.15,556.15,0,0,1,283,121.2c-7.39,2.19-4.24,13.77,3.19,11.57Z"/><path class="cls-1" d="M340,88.25,452.59,54.76C460,52.57,456.83,41,449.4,43.19L336.78,76.68c-7.38,2.2-4.24,13.78,3.19,11.57Z"/><path class="cls-1" d="M74.84,52.29c28.43-26,69.83-25.47,105.64-20.52C222.16,37.54,263.66,45,305.2,51.66L376,63c7.56,1.21,10.81-10.35,3.19-11.57L247.47,30.3c-21.58-3.46-43.13-7.25-64.78-10.23-20.48-2.83-41.15-4.39-61.7-1.23C100.83,22,81.5,30,66.36,43.84c-5.71,5.22,2.79,13.69,8.48,8.48Z"/><path class="cls-1" d="M72.68,48C97.94,17.91,138,9.47,175.61,12.67c23,2,45.51,7.79,67.81,13.57l67,17.37L387,63.48c7.48,1.94,10.67-9.63,3.19-11.57L248.49,15.15C206.33,4.22,161.52-7,118.39,5.49c-20.85,6-40.16,17.3-54.2,34C59.26,45.38,67.7,53.91,72.68,48Z"/><path class="cls-1" d="M66.78,51.5C114.11,22.37,172.19,11.83,226.8,22a225.41,225.41,0,0,1,45.74,13.73l3.19-11.57L163.22,7.81c-7.55-1.1-10.82,10.46-3.19,11.57l112.51,16.4c7.7,1.12,10.35-8.57,3.19-11.57C222.09,1.73,160,.55,105.24,19.91A233.28,233.28,0,0,0,60.73,41.14C54.16,45.14,60.18,55.57,66.78,51.5Z"/><path class="cls-1" d="M261,32.86l31.07,6.85c7.52,1.66,10.74-9.9,3.19-11.57l-31.07-6.85C256.67,19.63,253.45,31.19,261,32.86Z"/><path class="cls-1" d="M154.69,27.53a328.25,328.25,0,0,1,173.92,41.8,319.24,319.24,0,0,1,43.15,29.08c6,4.78,14.51-3.65,8.48-8.49a341.49,341.49,0,0,0-172-72.28,327.77,327.77,0,0,0-53.52-2.11c-7.7.32-7.74,12.32,0,12Z"/><path class="cls-1" d="M121.38,30.86A300.81,300.81,0,0,1,332.09,87.91c6.22,4.58,12.21-5.83,6.05-10.36-48-35.33-106.2-56-165.66-59.81a301.8,301.8,0,0,0-51.1,1.12c-7.6.8-7.68,12.81,0,12Z"/><path class="cls-1" d="M323.54,69.36c7.72,0,7.73-12,0-12S315.8,69.36,323.54,69.36Z"/><path class="cls-1" d="M320.51,68.54l13.22,8.33c4.85,3.06,9.58-2,8.81-6.78l-2.72-17L331,59.88C359.84,82,397.28,69.22,427.23,57c7-2.87,4-14.49-3.19-11.57-27,11-60.78,24.12-87,4-4.67-3.58-9.52,2.32-8.81,6.78l2.72,17,8.81-6.77-13.21-8.33C320,54,314,64.43,320.51,68.54Z"/><path class="cls-1" d="M402.13,51.9a192,192,0,0,1,88.06-19.16c7.72.16,7.72-11.84,0-12a205.16,205.16,0,0,0-94.12,20.8C389.13,44.91,395.2,55.27,402.13,51.9Z"/><path class="cls-1" d="M452.41,30.69a51,51,0,0,0-35.13,13.82c-3.63,3.36-1,10.69,4.24,10.24l45.83-4L465.75,39a40.14,40.14,0,0,0-23.44,19.43c-4.4,8.35-7,20.07-1.95,28.72s17.7,9.61,21.39-.77c4.06-11.42-6.26-18.28-15.32-22-5.84-2.38-9.7,6.07-5.84,10a35.12,35.12,0,0,0,29.07,10.26,33.5,33.5,0,0,0,14.51-5.19c2.52-1.65,4.84-3.79,7.59-5.07a4.82,4.82,0,0,1,3.37-.66c.76.2,1.1.87,1.18.6-2.13,7.45,9.35,10.58,11.57,3.19A115.87,115.87,0,0,1,536.82,29l-10-5.84L513.59,61c-2.59,7.42,8.74,10.17,11.57,3.19l7.65-18.81c2.05-5,5.14-10.49,3.61-16.12-3.25-11.94-17.3-10.83-26.22-7.3l4.62,11,11-4.75c4.66-2,3.41-10.07-1.43-11A224.83,224.83,0,0,0,450.64,16c-3.7.55-5.61,5.89-3.59,8.82a63.21,63.21,0,0,1,11.4,40.26l11.78-1.59a23.58,23.58,0,0,1,1.89-18.22l-11.18-3,1.77,16.4c.59,5.47,8.07,8.73,11.18,3l11.39-20.86-10.36-6L469.57,45l11.18,3L479.42,38c-.4-3-2-5.46-5.2-5.9-2.72-.36-6.06,1.36-6.59,4.3a33.85,33.85,0,0,0,3.89,23.49c2.43,4.25,7.78,3.47,10.36,0L493,45,482.64,39c-4.63,9.81-3.16,20.79,4.29,28.78,2.85,3,9.34,1.86,10-2.65l4.82-31.5H490.18a38.19,38.19,0,0,1,3,20.29c-.79,5.61,5.34,10.36,10,5.84,5.87-5.67,12.06-12.48,11.89-21.19-.15-7.28-4.72-14.53-12.16-16s-10.77,10.09-3.19,11.57c9.43,1.83-2.26,14.43-5,17.1l10,5.84a49.61,49.61,0,0,0-3-26.67c-2-4.67-10.55-6.63-11.57,0l-4.82,31.5,10-2.64A12.94,12.94,0,0,1,493,45c3.35-7.08-5.77-12.22-10.36-6.06L471.52,53.85h10.36a20.77,20.77,0,0,1-2.67-14.24L467.42,38,468.75,48c.71,5.29,8.1,8.91,11.18,3l5.35-10.19c3.58-6.82-6.65-12.86-10.36-6.05L463.53,55.61l11.18,3-1.77-16.4c-.59-5.45-8.08-8.74-11.18-3a36,36,0,0,0-3.1,27.47c1.91,6.66,11.41,5.08,11.79-1.6a74,74,0,0,0-13-46.32l-3.59,8.81a206.72,206.72,0,0,1,67.42,1.26l-1.44-11-11,4.75c-6.17,2.65-1.71,13.48,4.62,11,2.58-1,6.78-3.19,9.65-2.2,3.18,1.1.94,4.09,0,6.38Q518.36,49.4,513.59,61l11.57,3.19,13.21-37.86c2-5.81-6-9.91-10-5.84a128.64,128.64,0,0,0-32,53.85l11.57,3.19c1.88-6.58-2.15-12.6-8.34-14.92-6.37-2.38-12.39.19-17.67,3.85S472.1,73,465.58,73a22.88,22.88,0,0,1-16.5-7l-5.84,10c2.09.86,5.33,1.93,6.62,3.93.33.52.44,1.25.73,1.69a1.38,1.38,0,0,1-.18.84c-.28.51,0,.42.71-.26l.41.06a3.91,3.91,0,0,1-.81-1.13c-.18-.87-.76-1.72-.92-2.65a19.19,19.19,0,0,1,.38-6.88,28.08,28.08,0,0,1,18.76-21c6.14-1.94,5.45-12.39-1.59-11.78l-45.83,3.95L425.76,53a38.44,38.44,0,0,1,26.65-10.3c7.73,0,7.74-12,0-12Z"/><path class="cls-1" d="M507.25,44.44,548.06,31.3c7.32-2.36,4.19-14-3.19-11.58L504.06,32.87C496.74,35.23,499.87,46.82,507.25,44.44Z"/><path class="cls-1" d="M544.18,20.42c-19.26,29.69-29.64,64.58-28.34,100,.29,7.7,12.29,7.74,12,0-1.23-33.5,8.51-65.94,26.7-94,4.21-6.5-6.17-12.52-10.36-6.05Z"/><path class="cls-1" d="M146.56,524c60.42-67,147-106.92,237.3-108.44a327.89,327.89,0,0,1,81.39,8.82c7.5,1.78,10.71-9.78,3.19-11.57-94.17-22.31-195.29-3.21-274.28,52.86a341.58,341.58,0,0,0-56.09,49.84c-5.15,5.72,3.31,14.24,8.49,8.49Z"/><path class="cls-1" d="M187.38,323.65c7.72,0,7.74-12,0-12S179.65,323.65,187.38,323.65Z"/><path class="cls-1" d="M329.78,264.14A112.9,112.9,0,0,1,351.22,304c4.34,14.44,7.14,31.56,1.54,46s-19.19,25.1-30.63,34.6a281.94,281.94,0,0,1-40.26,27.75l8.81,6.78,4.7-21.54c1.64-7.53-9.93-10.74-11.58-3.19l-4.69,21.54c-1.1,5,4.11,9.46,8.81,6.77a297.57,297.57,0,0,0,45.46-31.94c12.73-10.86,26.15-22.87,31.53-39.23,5.33-16.19,2.67-34.78-2.12-50.77a127.16,127.16,0,0,0-24.53-45.1c-4.95-5.94-13.4,2.59-8.48,8.48Z"/><path class="cls-1" d="M297,407.26a19.75,19.75,0,0,0,19.88,5.24c7.37-2.23,4.23-13.81-3.19-11.57a7.66,7.66,0,0,1-8.2-2.16c-5.34-5.6-13.81,2.89-8.49,8.49Z"/><path class="cls-1" d="M463.73,413.72a598,598,0,0,1-245.59,93.69,584.78,584.78,0,0,1-74.78,5.76c-7.72.11-7.74,12.11,0,12a609,609,0,0,0,260.07-62.8,596.24,596.24,0,0,0,66.36-38.28c6.4-4.26.4-14.66-6.06-10.37Z"/><path class="cls-1" d="M48.74,180.23A16,16,0,0,0,60,192a6,6,0,0,0,3.19-11.57c-.21-.06-.42-.12-.63-.2-.42-.15-.28-.08.42.19l-.76-.41-.55-.36L62,180c-.22,0-.65-.62-.78-.76l-.29-.33c-.28-.34-.19-.22.28.34-.22-.06-.44-.77-.56-.94-.38-.54.27,1.08,0,0-.1-.42-.23-.84-.32-1.27-.63-3.08-4.44-5.14-7.38-4.19a6.14,6.14,0,0,0-4.19,7.38Z"/><path class="cls-1" d="M194.52,192.3l13.16-1.66c3.21-.4,6-2.46,6-6,0-2.92-2.77-6.41-6-6l-13.16,1.66c-3.22.41-6,2.47-6,6C188.52,189.23,191.28,192.71,194.52,192.3Z"/><path class="cls-1" d="M321.16,234.81h-.41a6.18,6.18,0,0,0-4.24,1.76,6,6,0,0,0,0,8.48,6.29,6.29,0,0,0,4.24,1.76h.41A6.19,6.19,0,0,0,325.4,245a6,6,0,0,0,0-8.48,6.16,6.16,0,0,0-4.24-1.76Z"/><path class="cls-1" d="M315.57,238.42l-2.29,14.71,11.79,1.6,1.75-17.2c.33-3.23-3-6-6-6-3.52,0-5.67,2.76-6,6l-1.75,17.2c-.68,6.66,10.74,8.28,11.78,1.59l2.29-14.71c.49-3.19-.82-6.45-4.19-7.38-2.85-.78-6.88,1-7.38,4.19Z"/><path class="cls-1" d="M320.14,114.29,384.77,88c9.89-4,19.72-8.42,29.83-11.88,9.22-3.16,19.81-5.8,29.09-1.41l1.43-11-14.18,5.43,7.38,7.38,9.19-53.3-5.79,4.4a32.61,32.61,0,0,1,21.47,5.09c6.81,4.5,10.43,11.68,15.07,18.13a58.25,58.25,0,0,0,38.46,24c7.55,1.15,10.81-10.41,3.19-11.57a48.38,48.38,0,0,1-21.73-8.74C491.1,49.26,487,42,482,35c-9.36-13-24-20.85-40.27-19.34-2.43.23-5.31,1.69-5.78,4.41l-9.19,53.3c-.69,4,2.68,9.18,7.38,7.38l14.18-5.43c4.31-1.65,6.56-8.54,1.44-11-20.93-9.91-43.11,1.89-62.63,9.83L317,102.72c-7.06,2.87-4,14.49,3.19,11.57Z"/><path class="cls-1" d="M245.22,33.45a109.62,109.62,0,0,1,78.68,36.3l7.28-9.42L316.9,52c-6.7-3.87-12.75,6.49-6.06,10.36l14.28,8.27c6,3.5,11.77-4.43,7.27-9.42a121.59,121.59,0,0,0-87.17-39.82c-7.73-.17-7.73,11.83,0,12Z"/><path class="cls-1" d="M266.4,133.12c29.06,0,55.55-12.52,83.44-18.78,29.93-6.73,60.93-4.38,91.24-2.19,7.71.56,7.67-11.45,0-12C410.84,98,380.2,95.93,350.25,102c-28.11,5.68-54.73,19.11-83.85,19.12C258.68,121.12,258.66,133.12,266.4,133.12Z"/><path class="cls-1" d="M320.91,54.62C334.66,62.19,350,69.33,366.1,65.84c7.58-1.65,14.36-5.84,21.14-9.4a217.31,217.31,0,0,1,21.33-9.8,231.52,231.52,0,0,1,92.94-15.85l-3-11.18-4,2.89c-6.2,4.48-.22,14.89,6.06,10.36l4-2.89c4.72-3.41,3.24-11-3-11.18a240.23,240.23,0,0,0-89.43,13.77c-14.14,5.07-27,12.12-40.49,18.58-15.7,7.52-30.47.91-44.63-6.88-6.77-3.73-12.83,6.63-6,10.36Z"/><path class="cls-1" d="M288.33,62.58a108.87,108.87,0,0,1,25,21.85c5,5.9,13.45-2.62,8.48-8.48a119.72,119.72,0,0,0-27.44-23.74c-6.55-4.13-12.57,6.25-6.06,10.37Z"/><path class="cls-1" d="M143.5,26.32c32.22,1.82,64.54,9.27,95.59,17.8,14.74,4,28.18,11.28,41.48,18.65,12.73,7,25,14.83,35,25.54,5.27,5.66,13.75-2.84,8.48-8.48-10.45-11.2-23.34-19.6-36.65-27C273.51,45.1,259.33,37.42,244,33c-16.11-4.63-32.67-8.23-49.08-11.6a354.87,354.87,0,0,0-51.42-7.1C135.79,13.88,135.81,25.88,143.5,26.32Z"/></g></g></g></g></svg>