<svg xmlns="http://www.w3.org/2000/svg" viewBox="0 0 555.9 525.88"><title>Recurso 5</title><g id="Capa_2" data-name="Capa 2"><g id="Capa_3" data-name="Capa 3"><path d="M62.65,47.65A1070.56,1070.56,0,0,1,117.39,227,1065.38,1065.38,0,0,1,139.9,412.44q1.75,53.15-1.82,106.29c-.51,7.71,11.49,7.68,12,0A1070.9,1070.9,0,0,0,146,330.35a1085.54,1085.54,0,0,0-36.91-185.47q-14.93-51-34.9-100.42c-2.85-7.07-14.47-4-11.57,3.19Z"/><path d="M63.35,52.84A1057,1057,0,0,1,240.74,170.93,1073.78,1073.78,0,0,1,390.45,321.34a1046.78,1046.78,0,0,1,70.41,97.42c4.15,6.49,14.54.48,10.36-6.05A1072.49,1072.49,0,0,0,337.55,243.86,1080.24,1080.24,0,0,0,172.9,105,1059.78,1059.78,0,0,0,69.41,42.47c-6.82-3.61-12.89,6.75-6.06,10.37Z"/><path d="M62.38,40.77C46.65,50,32.3,62.53,23.48,78.71c-9.5,17.42-11.71,38.64-4,57.14,6.5,15.59,20.07,26.64,36.3,30.92,20.09,5.3,41.67.92,61.41-3.82,88-21.1,170.07-60.93,258-81.93,49.83-11.9,102-17.59,152.78-8.48,7.55,1.35,10.79-10.21,3.19-11.57-85.87-15.4-171.82,8.58-252.37,36.87-40.76,14.32-81.14,29.81-122.56,42.2-19.85,5.94-40.1,11.72-60.55,15.22C78.51,158.2,59,158.9,44.06,148.37,27.25,136.5,23.54,113.55,29.48,94.88c6.13-19.25,22-33.79,39-43.74,6.66-3.91.63-14.28-6.06-10.37Z"/><path d="M61.53,41.24C30.7,66.22-4.09,102.09.39,145.36a70.62,70.62,0,0,0,27.79,49.73c10.41,7.84,23.22,13.62,35.19,18.56,20.5,8.45,43.58,7.85,65,3.57,25.28-5,50.34-13.25,74.87-21.05S252,180,276.23,171.54c12-4.18,24.48-7.18,36.57-11.18,11.74-3.89,23.21-8.37,35-12.18,53.74-17.4,113.35-40.24,170-22.26,7.38,2.35,10.54-9.23,3.19-11.57-47.48-15.08-99-2.82-144.95,12.06-11.7,3.79-23.39,7.62-35.09,11.4s-23,8.26-34.61,12.07-23.54,6.71-35.08,10.72q-17.62,6.14-35.29,12.18c-23.23,7.89-46.57,15.48-70.17,22.21s-47.28,14.16-72.12,13c-17.8-.8-33-8-48.34-16.53-2.37-1.32-4.73-2.66-7.05-4.07l-2.11-1.33c-.16-.09-.31-.22-.47-.31,2.78,1.7-1.18-.86-1.46-1.08A57.44,57.44,0,0,1,16.71,162C-2.28,117.06,38.18,75.52,70,49.73c6-4.87-2.54-13.31-8.49-8.49Z"/><path d="M115.37,154a86.23,86.23,0,0,0,25.51-58.46c.27-7.72-11.73-7.71-12,0a73.8,73.8,0,0,1-22,50c-5.5,5.43,3,13.92,8.48,8.48Z"/><path d="M177.88,202.87a252.7,252.7,0,0,1-42.08,81.58c-2,2.59-.37,6.7,2.15,8.21,3.08,1.85,6.24.4,8.21-2.15a261.73,261.73,0,0,0,43.29-84.45c2.23-7.41-9.35-10.58-11.57-3.19Z"/><path d="M247,174.06a718.49,718.49,0,0,1-76.3,175.73Q156.44,373.48,140.36,396c-4.48,6.3,5.92,12.3,10.37,6.05a734,734,0,0,0,90.93-172.49q9.48-25.83,16.94-52.31c2.11-7.44-9.47-10.62-11.57-3.19Z"/><path d="M314.08,243.67a519.85,519.85,0,0,1-85.53,200.18c-4.46,6.32,5.94,12.32,10.36,6a528.16,528.16,0,0,0,86.74-203c1.46-7.54-10.1-10.77-11.57-3.19Z"/><path d="M81.63,72.64c12.6,5.08,27.14,11,33.53,23.9,6.58,13.35-2.48,26.14-10.48,36.47l10.24,4.25C118,112.54,109.84,87.62,93.5,69,90.1,65.08,83,68.15,83.26,73.2a85.27,85.27,0,0,0,18.65,49.54c1.51,1.9,5.31,2.34,7.27.93a27.34,27.34,0,0,0,5.54-39.36l-5.84,10,21.88,7.3c7.34,2.45,10.49-9.14,3.19-11.57l-21.88-7.3c-6.31-2.1-9.16,5.79-5.84,10,4.69,6,3,16.15-3.1,20.51l7.27.94a71.34,71.34,0,0,1-15.14-41L85,77.45a76.3,76.3,0,0,1,17.91,59.81c-.62,5,7.16,8.22,10.24,4.24,10.82-14,21.25-30.15,13.63-48.2-7.43-17.62-25.33-25.52-42-32.23-7.16-2.89-10.27,8.71-3.19,11.57Z"/><path d="M194.37,207.25l44.27-9.88c6.15-1.37,5.23-9.76,0-11.57-14.11-4.87-26.21,6.06-33.94,16.67C195.46,215.14,188,229.62,181,243.6a451.28,451.28,0,0,0-33.72,89.85c-1.67,6.44,7.66,10.75,11,4.62l49.93-92.55c3.09-5.72-4.87-12.72-9.42-7.27a215.71,215.71,0,0,0-50.23,133.62l11.79-1.59c-4.41-27.38-6-55.93.76-83.07,6.55-26.34,21.67-49,36.6-71.29l-10.36-6.06-40.64,92.25h10.37l-6.33-9.22c-3-4.38-11.9-3.44-11.19,3l9.21,83.27c.72,6.52,9.61,8.4,11.79,1.6l30.74-96.32,15.37-48.15c2.21-6.92,5-14.2,3.67-21.58-1.11-6-5.55-11.47-11.53-13.19-2.91-.84-6.84-.78-9.5.87-3.52,2.2-3.5,7.37-4.23,11l-5.55,28c-1.49,7.54,10.07,10.77,11.57,3.19l7-35.41-4.19,4.19c6.57-2.29,4.28,9.65,3.45,12.5-2.1,7.18-4.53,14.27-6.81,21.4L176.7,290.72,149,377.59l11.79,1.59-9.21-83.27-11.18,3,6.33,9.22c2.27,3.3,8.4,4.47,10.37,0l40.63-92.24c3.07-7-6-12.6-10.36-6.06-15.86,23.65-31.61,47.87-38.25,75.94-6.81,28.81-5,58.69-.32,87.67,1.1,6.86,11.65,4.94,11.78-1.6a202.61,202.61,0,0,1,46.71-125.14l-9.42-7.27L147.9,332l11,4.62a436.45,436.45,0,0,1,29.36-80.58q9.3-19.29,20.45-37.61c5.21-8.55,14.42-25.34,26.77-21.08V185.8l-44.27,9.87c-7.54,1.68-4.35,13.26,3.19,11.58Z"/><path d="M236,180.69a715,715,0,0,0-69.43,171.57c-1.94,7.48,9.63,10.67,11.57,3.19a702.34,702.34,0,0,1,68.22-168.7c3.8-6.74-6.56-12.79-10.36-6.06Z"/><path d="M149.11,299.31c7.73,0,7.74-12,0-12s-7.73,12,0,12Z"/><path d="M193.62,263.4c6.95-11,14.22-21.9,20.77-33.16,6-10.25,10.73-21.55,9.77-33.64l-9,5.18,14.62,9.49c4.76,3.1,9.67-2,8.81-6.77l-.17-.95-.61,4.62-1.33,1.09-4.63-.61.86.44-2.75-6.77q-21.69,54.56-43.37,109.13c-2.86,7.18,8.74,10.29,11.57,3.19q21.68-54.57,43.37-109.13c.92-2.32-.59-5.67-2.76-6.78-6.63-3.39-13,1.81-11.75,9l8.81-6.78-14.62-9.49c-3.64-2.37-9.38.69-9,5.18.89,11.31-4.2,21.18-9.92,30.58-6.17,10.15-12.65,20.12-19,30.16-4.13,6.55,6.25,12.58,10.36,6.06Z"/><path d="M11.05,116.86c-5.54,17.29,3.72,35.25,17.7,45.48C44.89,174.15,66.48,175,85.69,174.81c45.53-.43,90.73-7.78,135.11-17.51,25.49-5.6,50.79-12,76.09-18.42,7.48-1.9,4.31-13.47-3.19-11.57-40.57,10.29-81.2,20.58-122.51,27.48A586.76,586.76,0,0,1,108.78,162c-18.89,1.11-39.51,2.76-57.95-2.46-16.72-4.73-34.34-20.38-28.21-39.5,2.36-7.38-9.22-10.53-11.57-3.19Z"/><path d="M11.61,137.06c2.84,18.22,15.79,33.1,31.53,41.94,19.2,10.79,41.73,12,63.19,9.59,23.81-2.72,47.41-8.24,70.81-13.29q35.69-7.71,71.08-16.65Q288.81,148.4,329,136.54c7.39-2.18,4.25-13.76-3.19-11.57Q259.49,144.51,192,159.74c-22.4,5-44.88,9.87-67.47,14-21.2,3.89-44,6.79-64.86-.37-17.87-6.13-33.5-20.27-36.5-39.51-1.19-7.61-12.75-4.37-11.57,3.19Z"/><path d="M6.12,143.28a95.72,95.72,0,0,0,106.57,62.23c7.59-1.29,4.37-12.86-3.19-11.57-39.28,6.68-78.45-16.4-91.81-53.85-2.57-7.22-14.17-4.11-11.57,3.19Z"/><path d="M20.87,171.85C36.31,198.71,67.92,210,97.6,209.37c18.27-.36,36.3-4.47,53.83-9.31a525.42,525.42,0,0,0,50.14-16.6,547.37,547.37,0,0,0,54.58-24.73c6.86-3.56.8-13.92-6-10.36a520.43,520.43,0,0,1-90.28,36.78c-29.83,9-63.21,18-93.89,7.76-14.32-4.81-27.1-13.9-34.7-27.12-3.84-6.69-14.22-.66-10.36,6.06Z"/><path d="M62.14,191.57c44.46,8.48,88.66-3.62,130.49-18.15C236.94,158,281,141.81,325.15,126l75.11-26.93c7.21-2.58,4.1-14.18-3.19-11.57l-130.5,46.78q-32.3,11.58-64.59,23.15c-20.92,7.48-42,14.75-63.71,19.63-23.91,5.39-48.71,7.58-72.94,3-7.55-1.44-10.78,10.12-3.19,11.57Z"/><path d="M63.53,180.65c93.84,2.62,183.24-29.75,273.61-50,26.05-5.85,52.34-10.72,78.92-13.45,4-.41,8.14-5,5.18-9l-5.12-7.07c-4.49-6.19-14.91-.21-10.36,6.06l5.12,7.06,5.18-9C323,114.7,235,149.45,142.74,163.43a446,446,0,0,1-79.21,5.22c-7.73-.22-7.72,11.78,0,12Z"/><path d="M90.35,201a724.48,724.48,0,0,0,192.3-40.72c17.64-6.35,35-13.43,52.12-21.1,7-3.15.94-13.5-6.06-10.36a713.11,713.11,0,0,1-183.78,54.07c-18.1,2.77-36.31,4.76-54.58,6.11-7.65.56-7.71,12.57,0,12Z"/><path d="M190.22,181.31q60.41-17.19,120.5-35.45c7.36-2.24,4.22-13.82-3.2-11.57Q247.43,152.55,187,169.74c-7.42,2.11-4.26,13.69,3.19,11.57Z"/><path d="M135.89,169.21,307.81,115c7.34-2.32,4.2-13.91-3.19-11.58L132.7,157.64c-7.34,2.31-4.21,13.9,3.19,11.57Z"/><path d="M201.77,158.1A1394.18,1394.18,0,0,1,433.7,107.37c3.24-.42,6-2.46,6-6,0-2.92-2.78-6.42-6-6a1413,1413,0,0,0-235.12,51.16c-7.36,2.28-4.22,13.86,3.19,11.57Z"/><path d="M365,291.13A165.66,165.66,0,0,1,338,402.23l9.42-1.21-1.82-2c-5.26-5.68-13.73,2.82-8.49,8.49l1.83,2c2.77,3,7.36,1.86,9.42-1.21A176,176,0,0,0,377,291.13c-.86-7.59-12.87-7.67-12,0Z"/><path d="M252.29,434.58l45.87-22.23,22.49-10.89,5.4-2.62c1.38-.67,4.34-1.43,5.39-2.61,2.18-.32,2.24-1.64.18-4l-.14.19c-1.32-1.11-3.07-1.77-4.45-2.89-5.95-4.81-14.49,3.63-8.49,8.49,4.22,3.41,9,6.87,14.7,6.14A11.86,11.86,0,0,0,343,395.9a9.51,9.51,0,0,0-5.4-11.51c-5.47-2.31-11,.87-15.82,3.22l-75.56,36.61c-6.95,3.36-.87,13.71,6.06,10.36Z"/><path d="M340.2,334.87c7.72,0,7.74-12,0-12s-7.73,12,0,12Z"/><path d="M323,254.26A489.27,489.27,0,0,1,253.07,427.4c-3.38,5.22,3.17,11,8.21,8.21,54.64-30.16,91.54-90.92,87.5-153.95-.42-6.63-9.79-8.31-11.78-1.6-16.61,56-47.66,106.83-88.95,148l9.43,7.28a967.87,967.87,0,0,0,71.16-181.27H317.07c3.58,10.67,12.43,17,21.39,23,10.15,6.85,19.51,13.34,17.18,27.1-1.42,8.34-4.4,16.54-6.74,24.66l-7.38,25.58-15,52.11c-2.17,7.53,8.94,10.33,11.57,3.19l20-54.31c5.53-15,11.85-31.08,10.38-47.44-1.27-14.19-9.27-29-24.11-32.54a20,20,0,0,0-18.75,4.83c-4.83,4.73-6.69,11.41-8,17.83-4.3,21.46-8.35,43-12.53,64.46l11.57,3.19c1.44-9.44-9-17.49-17.56-11.74-5.23,3.54-2,13.76,4.63,11,10.17-4.26,16.18-13.76,13.92-24.86-.73-3.55-5.79-5.78-8.82-3.58-13.94,10.13-21.12,26.14-18.41,43.28.85,5.42,8.46,5.4,11,1.43l39.37-62.42-11-4.62-33,89.72c-2.2,6,5.95,9.58,10,5.83,28.5-26.17,45.18-64.21,43.35-103-.16-3.61-3.73-7.16-7.59-5.78l-8,2.85,7.38,7.38,3.73-26.78-11,1.43c12.59,23.29,17.89,50.86,13.25,77.09-3.54,20.05-14.54,41.25-35.66,46.67l4.62,11c17.11-11.32,26.28-31.17,22.62-51.49-.53-2.92-4.58-5.36-7.38-4.19-14.12,5.88-24.35,19.19-23.37,35,.22,3.54,3.71,7.26,7.6,5.79,13.61-5.16,19.78-17.46,25.29-30.06l22.68-51.91c3.07-7-7.27-13.12-10.36-6.05l-20.29,46.44c-4.48,10.24-8.94,25.62-20.51,30l7.59,5.79a23.85,23.85,0,0,1,14.56-23.39l-7.38-4.19c2.66,14.77-4.79,29.79-17.11,37.94-5.57,3.68-2.16,12.71,4.63,11,24.61-6.31,39.23-30,43.8-53.73,5.75-29.85.18-61-14.22-87.66-2.26-4.17-10.24-3.8-11,1.44L330.34,308c-.56,4.07,2.57,9.1,7.38,7.38l8-2.85-7.6-5.79c1.69,35.88-13.5,70.38-39.84,94.56l10,5.84,33-89.72c2.43-6.6-7.47-10.17-11-4.63L291,375.23l11,1.44c-1.79-11.35,3.73-23.07,12.9-29.73L306,343.35a9.35,9.35,0,0,1-5.53,10.1l4.62,11c.05,0-.09-1.7-.07-1.82-1.14,7.47,10.08,10.87,11.57,3.19l11.77-60.55c1.14-5.87,1.86-17,9.39-18.33,7-1.22,13.31,5.58,16,11.24,7.3,15.59-.06,34.47-5.55,49.44q-10.83,29.51-21.7,59l11.57,3.19,15.3-53.06L361,330.18c2.48-8.59,5.6-17.27,6.71-26.17,1.77-14-5-24-15.78-32.08-7.88-5.89-19.93-11-23.3-21-1.83-5.48-9.91-5.92-11.57,0a952.16,952.16,0,0,1-69.95,178.4c-3,5.92,4.43,12.25,9.42,7.27,42.72-42.64,74.84-95.39,92-153.32l-11.79-1.59c3.78,59-30.36,115.33-81.56,143.58l8.21,8.21a498.21,498.21,0,0,0,71.1-176c1.45-7.54-10.11-10.77-11.57-3.19Z"/><path d="M331.66,268.71a426.71,426.71,0,0,1-22.27,83.2c-5,13.11-11.43,25.51-16.76,38.44-4.41,10.69-3.33,25.62,9.9,29.08,7.48,2,10.67-9.62,3.19-11.57-10.33-2.71,2.9-23.44,5.14-28.43q7.67-17,13.88-34.67a426.11,426.11,0,0,0,18.49-72.86c1.23-7.55-10.33-10.8-11.57-3.19Z"/><path d="M327.29,141.56C384.23,107,453.14,95,518.79,104.8c7.55,1.13,10.81-10.43,3.19-11.57-68.9-10.32-140.88,1.58-200.75,38-6.59,4-.57,14.38,6.06,10.36Z"/><path d="M339.65,144c58.2-13.69,116.8-43.72,178-31,7.53,1.57,10.76-10,3.19-11.57-63.87-13.25-123.61,16.74-184.37,31-7.51,1.76-4.33,13.34,3.19,11.57Z"/><path d="M314.6,151.26a428.24,428.24,0,0,1,107.2-35.41c7.58-1.44,4.37-13-3.19-11.57A439.64,439.64,0,0,0,308.55,140.9c-6.95,3.37-.87,13.72,6.05,10.36Z"/><path d="M265.29,125a498.31,498.31,0,0,1,182.83-37.5,503.5,503.5,0,0,1,53.25,2.18c7.68.72,7.63-11.28,0-12A508,508,0,0,0,313.26,95.54a502.3,502.3,0,0,0-51.16,17.92c-7.05,2.89-4,14.51,3.19,11.57Z"/><path d="M217,132.63c45.47-10.42,85.57-35,125.07-58.78,39.93-24,81.71-48.57,128.76-54.7,25.38-3.31,52-1.2,75.47,9.45,7,3.17,13.09-7.17,6.06-10.36C508.9-1.47,459.3,4.42,416,21.55,370.82,39.42,331.29,68,288.82,91.11c-23.76,12.9-48.54,23.89-75,30-7.52,1.72-4.34,13.29,3.19,11.57Z"/><path d="M524.89,113.34c-.28-31.67,11.16-61.89,29.86-87.19,4.6-6.22-5.81-12.21-10.36-6.06-19.88,26.9-31.79,59.63-31.5,93.25.07,7.71,12.07,7.73,12,0Z"/><path d="M102.3,73.88c3.17,9.86-1,19.57-2.92,29.23-1.88,9.26-2.11,18.52,2.46,27,3.66,6.81,14,.75,10.37-6.06-4.38-8.16-1.33-17.7.74-26.1,2.22-9,3.83-18.24.92-27.3-2.35-7.33-13.94-4.2-11.57,3.19Z"/><path d="M126.09,172.44l104.42-21.51c33.14-6.82,66.52-13,99.11-22.21a395.36,395.36,0,0,0,53.5-19.08c7.05-3.13.95-13.48-6.05-10.36-30.21,13.41-62.42,21.62-94.62,28.62-33.45,7.27-67,13.91-100.57,20.82l-59,12.14c-7.56,1.56-4.36,13.13,3.19,11.58Z"/><path d="M286.21,132.75A572.13,572.13,0,0,0,394.59,88.1c5.9-3.18,1.88-13.17-4.63-11l-77,26c-7.44,2.51-4.35,12.77,3.19,11.57L471,90c7.25-1.15,4.52-11.08-1.59-11.78a210.37,210.37,0,0,0-131.81,28.91l7.27.94c-9.61-11.82,3.5-26.53,13.14-32.73,13.82-8.89,29.57-15.52,44.89-21.34a337.58,337.58,0,0,1,48.3-14.42c13.76-3,30.63-5.14,41.81,5.44,9.22,8.73,13.13,23.54,7.66,35.31l11,4.62,6.78-17-11.79-1.59-1,24.93,6-6-57.65-7,1.6,11.79,39.63-8.69c6-1.31,5.46-10,0-11.58a227.62,227.62,0,0,0-97-6.24c-6.09.91-5.32,10.13,0,11.57L443.3,87.3l1.59-11.79-52.26,0,1.59,11.78,14.43-5.81c5.84-2.35,5.71-12-1.6-11.79-12.7.3-26-.49-38.54,1.63l-38,6.45c-7.6,1.29-4.38,12.86,3.19,11.57l36.11-6.12c12.09-2.06,25-1.24,37.25-1.53L405.46,70,391,75.77c-5.91,2.39-5.67,11.8,1.6,11.79l52.26,0c6.74,0,8.19-10,1.6-11.78L401.43,63.54V75.11A213.2,213.2,0,0,1,492,81.36V69.78l-39.63,8.7c-7.17,1.57-4.6,11,1.59,11.78l57.65,7c3.31.41,5.88-3.08,6-6l1-24.93c.3-7.26-9.45-7.47-11.78-1.6L500.1,81.79c-2.49,6.27,8.1,10.78,11,4.63a43.58,43.58,0,0,0-3.69-42.87c-10.48-15.24-27.87-19.87-45.62-17.84-20.22,2.32-40.42,8.73-59.44,15.78-9.67,3.59-19.21,7.59-28.54,12-8.56,4-17.35,8.16-25,13.73S334.2,80.06,331.37,89.48a28.88,28.88,0,0,0,5,27.1c1.64,2,5.17,2.21,7.27.94A199.71,199.71,0,0,1,469.44,90.25l-1.6-11.79L313,103.14l3.19,11.57,77-26-4.62-11A555.81,555.81,0,0,1,283,121.18c-7.39,2.19-4.24,13.77,3.19,11.57Z"/><path d="M340,88.23,452.59,54.74C460,52.55,456.83,41,449.4,43.17L336.78,76.66c-7.38,2.2-4.24,13.78,3.19,11.57Z"/><path d="M74.84,52.27c28.43-26,69.83-25.47,105.64-20.52C222.16,37.52,263.66,45,305.2,51.64L376,63c7.56,1.21,10.81-10.35,3.19-11.57L247.47,30.28c-21.58-3.46-43.13-7.25-64.78-10.23-20.48-2.83-41.15-4.39-61.7-1.23-20.16,3.11-39.49,11.11-54.63,25-5.71,5.22,2.79,13.69,8.48,8.48Z"/><path d="M72.68,48C97.94,17.89,138,9.45,175.61,12.65c23,2,45.51,7.79,67.81,13.57l67,17.37L387,63.46c7.48,1.94,10.67-9.63,3.19-11.57L248.49,15.13C206.33,4.2,161.52-7,118.39,5.47c-20.85,6-40.16,17.3-54.2,34C59.26,45.36,67.7,53.89,72.68,48Z"/><path d="M66.78,51.48C114.11,22.35,172.19,11.81,226.8,22a225.86,225.86,0,0,1,45.74,13.73l3.19-11.57L163.22,7.79c-7.55-1.1-10.82,10.46-3.19,11.57l112.51,16.4c7.7,1.12,10.35-8.57,3.19-11.57C222.09,1.71,160,.53,105.24,19.89A233.31,233.31,0,0,0,60.73,41.12c-6.57,4-.55,14.43,6.05,10.36Z"/><path d="M261,32.84l31.07,6.85c7.52,1.66,10.74-9.9,3.19-11.57l-31.07-6.85c-7.52-1.66-10.74,9.9-3.19,11.57Z"/><path d="M154.69,27.51a328.32,328.32,0,0,1,173.92,41.8,319.24,319.24,0,0,1,43.15,29.08c6,4.78,14.51-3.65,8.48-8.49a341.55,341.55,0,0,0-172-72.28,328.93,328.93,0,0,0-53.52-2.11c-7.7.32-7.74,12.32,0,12Z"/><path d="M121.38,30.84A300.86,300.86,0,0,1,332.09,87.89c6.22,4.58,12.21-5.83,6.05-10.36-48-35.33-106.2-56-165.66-59.81a302.84,302.84,0,0,0-51.1,1.12c-7.6.8-7.68,12.81,0,12Z"/><path d="M323.54,69.34c7.72,0,7.73-12,0-12s-7.74,12,0,12Z"/><path d="M320.51,68.52l13.22,8.33c4.85,3.06,9.58-2,8.81-6.78l-2.72-17L331,59.86c28.84,22.07,66.28,9.34,96.23-2.85,7.05-2.87,4-14.49-3.19-11.57-27,11-60.78,24.12-87,4.05-4.67-3.58-9.52,2.32-8.81,6.78l2.72,17,8.81-6.77-13.21-8.33C320,54,314,64.41,320.51,68.52Z"/><path d="M402.13,51.88a192.14,192.14,0,0,1,88.06-19.16c7.72.16,7.72-11.84,0-12a205.29,205.29,0,0,0-94.12,20.8c-6.94,3.37-.87,13.73,6.06,10.36Z"/><path d="M452.41,30.67a51,51,0,0,0-35.13,13.82c-3.63,3.36-1,10.69,4.24,10.24l45.83-3.95L465.75,39a40.16,40.16,0,0,0-23.44,19.43c-4.4,8.35-7,20.07-1.95,28.72s17.7,9.61,21.39-.77c4.06-11.42-6.26-18.28-15.32-22-5.84-2.38-9.7,6.07-5.84,10a35.1,35.1,0,0,0,29.07,10.26,33.42,33.42,0,0,0,14.51-5.19c2.52-1.65,4.84-3.79,7.59-5.07a4.84,4.84,0,0,1,3.37-.66c.76.2,1.1.87,1.18.6-2.13,7.45,9.35,10.58,11.57,3.19A115.81,115.81,0,0,1,536.82,29l-10-5.84L513.59,61c-2.59,7.42,8.74,10.17,11.57,3.19l7.65-18.81c2.05-5,5.14-10.49,3.61-16.12-3.25-11.94-17.3-10.83-26.22-7.3l4.62,11,11-4.75c4.66-2,3.41-10.07-1.43-11A225.14,225.14,0,0,0,450.64,16c-3.7.55-5.61,5.89-3.59,8.82a63.29,63.29,0,0,1,11.4,40.26l11.78-1.59a23.58,23.58,0,0,1,1.89-18.22l-11.18-3,1.77,16.4c.59,5.47,8.07,8.73,11.18,3l11.39-20.86-10.36-6.05-5.35,10.18,11.18,3L479.42,38c-.4-3-2-5.46-5.2-5.9-2.72-.36-6.06,1.36-6.59,4.3a33.84,33.84,0,0,0,3.89,23.49c2.43,4.25,7.78,3.47,10.36,0L493,45l-10.36-6.06c-4.63,9.81-3.16,20.79,4.29,28.78,2.85,3,9.34,1.86,10-2.65l4.82-31.5H490.18a38.22,38.22,0,0,1,3,20.29c-.79,5.61,5.34,10.36,10,5.84,5.87-5.67,12.06-12.48,11.89-21.19-.15-7.28-4.72-14.53-12.16-16s-10.77,10.09-3.19,11.57c9.43,1.83-2.26,14.43-5,17.1l10,5.84a49.61,49.61,0,0,0-3-26.67c-1.95-4.67-10.55-6.63-11.57,0l-4.82,31.5,10-2.64A12.93,12.93,0,0,1,493,45c3.35-7.08-5.77-12.22-10.36-6.06L471.52,53.83h10.36a20.76,20.76,0,0,1-2.67-14.24L467.42,38l1.33,9.94c.71,5.29,8.1,8.91,11.18,3l5.35-10.19c3.58-6.82-6.65-12.86-10.36-6.05L463.53,55.59l11.18,3-1.77-16.4c-.59-5.45-8.08-8.74-11.18-3a36,36,0,0,0-3.1,27.47c1.91,6.66,11.41,5.08,11.79-1.6a74,74,0,0,0-13-46.32l-3.59,8.81a207,207,0,0,1,67.42,1.26l-1.44-11-11,4.75c-6.17,2.65-1.71,13.48,4.62,11,2.58-1,6.78-3.19,9.65-2.2,3.18,1.1.94,4.09,0,6.38Q518.35,49.39,513.59,61l11.57,3.19,13.21-37.86c2-5.81-6-9.91-10-5.84a128.66,128.66,0,0,0-32,53.85l11.57,3.19c1.88-6.58-2.15-12.6-8.34-14.92-6.37-2.38-12.39.19-17.67,3.85S472.1,73,465.58,72.94a22.85,22.85,0,0,1-16.5-7l-5.84,10c2.09.86,5.33,1.93,6.62,3.93.33.52.44,1.25.73,1.69a1.37,1.37,0,0,1-.18.84c-.28.51,0,.42.71-.26l.41.06a3.78,3.78,0,0,1-.81-1.13c-.18-.87-.76-1.72-.92-2.65a19.21,19.21,0,0,1,.38-6.88,28.09,28.09,0,0,1,18.76-21c6.14-1.94,5.45-12.39-1.59-11.78l-45.83,3.95L425.76,53a38.44,38.44,0,0,1,26.65-10.3c7.73,0,7.74-12,0-12Z"/><path d="M507.25,44.42l40.81-13.14c7.32-2.36,4.19-14-3.19-11.58L504.06,32.85c-7.32,2.36-4.19,13.95,3.19,11.57Z"/><path d="M544.18,20.4c-19.26,29.69-29.64,64.58-28.34,100,.29,7.7,12.29,7.74,12,0-1.23-33.5,8.51-65.94,26.7-94,4.21-6.5-6.17-12.52-10.36-6.05Z"/><path d="M146.56,524c60.42-67,147-106.92,237.3-108.44a328.36,328.36,0,0,1,81.39,8.82c7.5,1.78,10.71-9.78,3.19-11.57-94.17-22.31-195.29-3.21-274.28,52.86a342,342,0,0,0-56.09,49.84c-5.15,5.72,3.31,14.24,8.49,8.49Z"/><path d="M187.38,323.63c7.72,0,7.74-12,0-12s-7.73,12,0,12Z"/><path d="M329.78,264.12a112.9,112.9,0,0,1,21.44,39.81c4.34,14.44,7.14,31.56,1.54,46-5.51,14.29-19.19,25.1-30.63,34.6a281.94,281.94,0,0,1-40.26,27.75l8.81,6.78,4.7-21.54c1.64-7.53-9.93-10.74-11.58-3.19l-4.69,21.54c-1.1,5,4.11,9.46,8.81,6.77a298.06,298.06,0,0,0,45.46-31.94c12.73-10.86,26.15-22.87,31.53-39.23,5.33-16.19,2.67-34.78-2.12-50.77a127.25,127.25,0,0,0-24.53-45.1c-4.95-5.94-13.4,2.59-8.48,8.48Z"/><path d="M297,407.24a19.73,19.73,0,0,0,19.88,5.24c7.37-2.23,4.23-13.81-3.19-11.57a7.65,7.65,0,0,1-8.2-2.16c-5.34-5.6-13.81,2.89-8.49,8.49Z"/><path d="M463.73,413.7a597.92,597.92,0,0,1-245.59,93.69,583,583,0,0,1-74.78,5.76c-7.72.11-7.74,12.11,0,12a609,609,0,0,0,260.07-62.8,595.58,595.58,0,0,0,66.36-38.28c6.4-4.26.4-14.66-6.06-10.37Z"/><path d="M48.74,180.21A16,16,0,0,0,60,192a6,6,0,1,0,3.19-11.57c-.21-.06-.42-.12-.63-.2-.42-.15-.28-.08.42.19,0,0-.7-.37-.76-.41l-.55-.36L62,180c-.22,0-.65-.62-.78-.76l-.29-.33c-.28-.34-.19-.22.28.34-.22-.06-.44-.77-.56-.94-.38-.54.27,1.08,0,0-.1-.42-.23-.84-.32-1.27-.63-3.08-4.44-5.14-7.38-4.19a6.14,6.14,0,0,0-4.19,7.38Z"/><path d="M194.52,192.28l13.16-1.66c3.21-.4,6-2.46,6-6,0-2.92-2.77-6.41-6-6l-13.16,1.66c-3.22.41-6,2.47-6,6,0,2.93,2.76,6.41,6,6Z"/><path d="M321.16,234.79h-.41a6.16,6.16,0,0,0-4.24,1.76,6,6,0,0,0,0,8.48,6.2,6.2,0,0,0,4.24,1.76h.41A6.18,6.18,0,0,0,325.4,245a6,6,0,0,0,0-8.48,6.2,6.2,0,0,0-4.24-1.76Z"/><path d="M315.57,238.4l-2.29,14.71,11.79,1.6,1.75-17.2c.33-3.23-3-6-6-6-3.52,0-5.67,2.76-6,6l-1.75,17.2c-.68,6.66,10.74,8.28,11.78,1.59l2.29-14.71c.49-3.19-.82-6.45-4.19-7.38-2.85-.78-6.88,1-7.38,4.19Z"/><path d="M320.14,114.27,384.77,88c9.89-4,19.72-8.42,29.83-11.88,9.22-3.16,19.81-5.8,29.09-1.41l1.43-11-14.18,5.43,7.38,7.38,9.19-53.3-5.79,4.4a32.7,32.7,0,0,1,21.47,5.09c6.81,4.5,10.43,11.68,15.07,18.13A58.22,58.22,0,0,0,516.72,74.8c7.55,1.15,10.81-10.41,3.19-11.57a48.22,48.22,0,0,1-21.73-8.74C491.1,49.24,487,42,482,35c-9.36-13-24-20.85-40.27-19.34-2.43.23-5.31,1.69-5.78,4.41l-9.19,53.3c-.69,4,2.68,9.18,7.38,7.38l14.18-5.43c4.31-1.65,6.56-8.54,1.44-11-20.93-9.91-43.11,1.89-62.63,9.83L317,102.7c-7.06,2.87-4,14.49,3.19,11.57Z"/><path d="M245.22,33.43a109.64,109.64,0,0,1,78.68,36.3l7.28-9.42L316.9,52c-6.7-3.87-12.75,6.49-6.06,10.36l14.28,8.27c6,3.5,11.77-4.43,7.27-9.42a121.62,121.62,0,0,0-87.17-39.82c-7.73-.17-7.73,11.83,0,12Z"/><path d="M266.4,133.1c29.06,0,55.55-12.52,83.44-18.78,29.93-6.73,60.93-4.38,91.24-2.19,7.71.56,7.67-11.45,0-12-30.24-2.19-60.88-4.22-90.83,1.85-28.11,5.68-54.73,19.11-83.85,19.12-7.72,0-7.74,12,0,12Z"/><path d="M320.91,54.6C334.66,62.17,350,69.31,366.1,65.82c7.58-1.65,14.36-5.84,21.14-9.4a218.58,218.58,0,0,1,21.33-9.8,231.55,231.55,0,0,1,92.94-15.85l-3-11.18-4,2.89c-6.2,4.48-.22,14.89,6.06,10.36l4-2.89c4.72-3.41,3.24-11-3-11.18a240.41,240.41,0,0,0-89.43,13.77c-14.14,5.07-27,12.12-40.49,18.58-15.7,7.52-30.47.91-44.63-6.88-6.77-3.73-12.83,6.63-6,10.36Z"/><path d="M288.33,62.56a109.21,109.21,0,0,1,25,21.85c5,5.9,13.45-2.62,8.48-8.48a119.76,119.76,0,0,0-27.44-23.74c-6.55-4.13-12.57,6.25-6.06,10.37Z"/><path d="M143.5,26.3c32.22,1.82,64.54,9.27,95.59,17.8,14.74,4,28.18,11.28,41.48,18.65,12.73,7,25,14.83,35,25.54,5.27,5.66,13.75-2.84,8.48-8.48-10.45-11.2-23.34-19.6-36.65-27C273.51,45.08,259.33,37.4,244,33c-16.11-4.63-32.67-8.23-49.08-11.6A355.22,355.22,0,0,0,143.5,14.3c-7.71-.44-7.69,11.56,0,12Z"/></g></g></svg>