<svg xmlns="http://www.w3.org/2000/svg" viewBox="0 0 606.23 242.71"><defs><style>.cls-1{font-size:72px;stroke:#000;stroke-miterlimit:10;font-family:ComicSansMS, Comic Sans MS;}</style></defs><title>Recurso 4</title><g id="Capa_2" data-name="Capa 2"><g id="Capa_2-2" data-name="Capa 2"><text class="cls-1" transform="translate(348.28 133.35)">DevOps</text><path d="M.18,31a790.1,790.1,0,0,1,21,177.78,6.06,6.06,0,0,0,7.6,5.78,648.92,648.92,0,0,1,115.47-24c37.28-4.22,75.9-6.46,113.25-1.81,20.36,2.53,40.53,7.77,58.9,17,4.26,2.15,8.63-.54,9-5.18A1676.37,1676.37,0,0,0,330.76,5.88c-.14-4.79-4.92-7.15-9-5.18A884.34,884.34,0,0,0,162.85,99h8.49C132.82,68.64,91.85,37.43,41.55,31.88v12L218.89,24.61c7.6-.83,7.68-12.84,0-12L41.55,31.88c-7.7.83-7.71,11.15,0,12,46.65,5.15,85.64,35.5,121.3,63.58,2.81,2.21,5.65,2.19,8.49,0a870.58,870.58,0,0,1,156.45-96.4l-9-5.18a1676.37,1676.37,0,0,1-5.35,194.74l9-5.18c-33.73-17-71.74-21.14-109.06-21a653.41,653.41,0,0,0-120.9,12A660,660,0,0,0,25.58,203l7.59,5.79a805.58,805.58,0,0,0-21.42-181C10,20.34-1.59,23.52.18,31Z"/></g></g></svg>